<svg width="21" height="21" viewBox="0 0 21 21" fill="none" xmlns="http://www.w3.org/2000/svg">
<path fill-rule="evenodd" clip-rule="evenodd" d="M15 8.69998C15 12.1794 12.1794 15 8.70001 15C5.22061 15 2.40001 12.1794 2.40001 8.69998C2.40001 5.22058 5.22061 2.39998 8.70001 2.39998C12.1794 2.39998 15 5.22058 15 8.69998ZM13.7559 15.0286C12.3702 16.1372 10.6125 16.8 8.70001 16.8C4.2265 16.8 0.600006 13.1735 0.600006 8.69998C0.600006 4.22647 4.2265 0.599976 8.70001 0.599976C13.1735 0.599976 16.8 4.22647 16.8 8.69998C16.8 10.6125 16.1372 12.3702 15.0286 13.7559L20.1365 18.8635C20.4878 19.215 20.4878 19.7849 20.1365 20.1365C19.7849 20.4878 19.2151 20.4878 18.8635 20.1365L13.7559 15.0286Z" fill="#9DA3AA"/>
</svg>
